<svg viewBox="0 0 16 16" xmlns="http://www.w3.org/2000/svg" shape-rendering="crispEdges">
  <rect x="7" y="0" width="2" height="2" fill="#ffffff"/>
  <rect x="5" y="2" width="2" height="2" fill="#00f3ff"/>
  <rect x="9" y="2" width="2" height="2" fill="#00f3ff"/>
  <rect x="3" y="4" width="2" height="2" fill="#00f3ff"/>
  <rect x="7" y="4" width="2" height="4" fill="#ffffff"/>
  <rect x="11" y="4" width="2" height="2" fill="#00f3ff"/>
  <rect x="1" y="6" width="2" height="4" fill="#ffffff"/>
  <rect x="5" y="6" width="2" height="2" fill="#00f3ff"/>
  <rect x="9" y="6" width="2" height="2" fill="#00f3ff"/>
  <rect x="13" y="6" width="2" height="4" fill="#ffffff"/>
  <rect x="3" y="10" width="2" height="2" fill="#00f3ff"/>
  <rect x="7" y="10" width="2" height="2" fill="#ffffff"/>
  <rect x="11" y="10" width="2" height="2" fill="#00f3ff"/>
  <rect x="5" y="12" width="2" height="2" fill="#00f3ff"/>
  <rect x="9" y="12" width="2" height="2" fill="#00f3ff"/>
  <rect x="7" y="14" width="2" height="2" fill="#ffffff"/>
</svg>
